<svg id="svg" version="1.1" viewBox="0 0 300 300" width="300" height="300" xmlns="http://www.w3.org/2000/svg"><svg xmlns="http://www.w3.org/2000/svg"><defs><clipPath id="clip-1"><rect x="0" y="0" transform="scale(0.14648,0.14648)" width="2048" height="2048" fill="none"/></clipPath></defs><g clip-path="url(#clip-1)" fill="none" fill-rule="nonzero" stroke="none" stroke-width="1" stroke-linecap="butt" stroke-linejoin="miter" stroke-miterlimit="10" stroke-dasharray="" stroke-dashoffset="0" font-family="none" font-weight="none" font-size="none" text-anchor="none" style="mix-blend-mode: normal"><path d="M136.65293,59.12036c0.50977,0.23672 1.01733,0.47842 1.52256,0.7248c11.78203,5.75552 25.53838,17.14893 29.85674,29.87856c1.40332,4.13394 1.98633,8.13867 1.9585,12.49512c-0.08496,13.16851 -6.29883,23.44131 -13.24072,34.09468c-4.78271,7.34136 -9.8335,14.52876 -13.70171,22.41548c-4.23911,8.63965 -8.0811,19.35498 -4.74829,28.90576c1.50234,4.30518 4.34956,8.0918 8.57695,10.02246c2.9209,1.33447 6.79395,1.28613 9.78223,0.21826c7.07373,-2.52832 10.93359,-8.32617 13.98193,-14.81982c2.65283,6.44824 2.98242,12.06006 2.15771,18.90674c-0.34424,2.16064 -0.6665,4.32568 -1.229,6.44238c-2.39355,9.00439 -7.58936,16.27734 -13.46484,23.29541c-2.62354,2.72461 -5.39648,5.03467 -8.42725,7.29492c-0.99463,0.74268 -2.03027,1.59521 -3.14795,2.14014c-2.68198,-0.53027 -5.41362,-0.90527 -8.07773,-1.51318c-2.25659,-0.51416 -4.52944,-1.24365 -6.72188,-1.98779c-3.56968,-1.21143 -6.99185,-2.80957 -10.35322,-4.50439c-13.33931,-6.7251 -23.75669,-16.02832 -30.43008,-29.5459c-3.87334,-7.84424 -5.31196,-16.28174 -4.9708,-24.99316c0.14224,-3.63281 0.47754,-7.18213 1.26064,-10.74023c2.95928,-13.44434 10.87603,-26.12212 19.37373,-36.74194c4.25757,-5.32104 8.89131,-10.33901 13.08882,-15.69902c6.86997,-8.77295 13.78843,-19.59888 17.37656,-30.19658c2.86963,-8.47529 3.64644,-17.86377 -0.4229,-26.09268z" fill="#ecb150"/><path d="M191.66455,112.75093c0.39697,0.41045 -0.06738,2.03657 -0.14941,2.6209c-0.56836,4.02803 -0.48926,7.72441 0.75439,11.6291c0.83496,2.61738 1.73145,5.17222 2.93555,7.64722c4.6582,9.56807 12.09229,17.44072 17.11963,26.82305c5.73633,10.71094 7.78271,23.78467 4.17188,35.49023c-5.25439,17.0376 -18.3501,29.42871 -33.77197,37.56006c-2.59131,1.3374 -5.39648,2.47705 -8.18262,3.33691c6.53174,-5.67041 12.15381,-12.99463 14.58252,-21.39258c5.14453,-17.77734 -4.36963,-32.01855 -10.44141,-47.91797c-1.86328,-4.87939 -3.33252,-10.06055 -3.99023,-15.24902c-0.19482,-1.54102 -0.43066,-3.11865 -0.45703,-4.67139c-0.03223,-1.84424 0.1626,-3.69888 0.37939,-5.52891c0.45703,-3.54902 1.3623,-7.02554 2.69531,-10.34604c2.80518,-6.90762 8.43896,-15.34116 14.354,-20.00156z" fill="#e4e3e2"/></g></svg></svg>